<mxfile host="Electron" agent="Mozilla/5.0 (X11; Linux x86_64) AppleWebKit/537.36 (KHTML, like Gecko) draw.io/24.7.8 Chrome/128.0.6613.84 Electron/32.0.2 Safari/537.36" version="24.7.8">
  <diagram id="6a731a19-8d31-9384-78a2-239565b7b9f0" name="Page-1">
    <mxGraphModel dx="1396" dy="837" grid="1" gridSize="10" guides="1" tooltips="1" connect="1" arrows="1" fold="1" page="1" pageScale="1" pageWidth="1169" pageHeight="827" background="none" math="0" shadow="0">
      <root>
        <mxCell id="0" />
        <mxCell id="1" parent="0" />
        <mxCell id="0h59lGTB9siEPxAaOy_X-1804" style="edgeStyle=orthogonalEdgeStyle;rounded=0;orthogonalLoop=1;jettySize=auto;html=1;endArrow=none;endFill=0;strokeWidth=2;strokeColor=#2F5B7C;" parent="1" source="1749" target="0h59lGTB9siEPxAaOy_X-1781" edge="1">
          <mxGeometry relative="1" as="geometry" />
        </mxCell>
        <mxCell id="0h59lGTB9siEPxAaOy_X-1805" style="edgeStyle=orthogonalEdgeStyle;rounded=0;orthogonalLoop=1;jettySize=auto;html=1;endArrow=none;endFill=0;strokeWidth=2;strokeColor=#2F5B7C;" parent="1" source="1749" target="1772" edge="1">
          <mxGeometry relative="1" as="geometry">
            <Array as="points">
              <mxPoint x="714" y="380" />
              <mxPoint x="325" y="380" />
            </Array>
          </mxGeometry>
        </mxCell>
        <mxCell id="0h59lGTB9siEPxAaOy_X-1826" style="edgeStyle=orthogonalEdgeStyle;rounded=0;orthogonalLoop=1;jettySize=auto;html=1;entryX=0.5;entryY=0;entryDx=0;entryDy=0;strokeWidth=2;strokeColor=#2F5B7C;endArrow=none;endFill=0;" parent="1" source="1749" target="0h59lGTB9siEPxAaOy_X-1782" edge="1">
          <mxGeometry relative="1" as="geometry">
            <Array as="points">
              <mxPoint x="714" y="380" />
              <mxPoint x="1042" y="380" />
            </Array>
          </mxGeometry>
        </mxCell>
        <mxCell id="1749" value="Demonstration" style="rounded=1;whiteSpace=wrap;html=1;shadow=0;labelBackgroundColor=none;strokeColor=#2f5b7c;strokeWidth=3;fillColor=#f5f5f5;fontFamily=Helvetica;fontSize=16;fontColor=#333333;align=center;fontStyle=1;spacing=5;arcSize=7;perimeterSpacing=2;" parent="1" vertex="1">
          <mxGeometry x="639" y="280" width="150" height="70" as="geometry" />
        </mxCell>
        <mxCell id="0h59lGTB9siEPxAaOy_X-1807" style="edgeStyle=orthogonalEdgeStyle;rounded=0;orthogonalLoop=1;jettySize=auto;html=1;entryX=0.5;entryY=0;entryDx=0;entryDy=0;endArrow=none;endFill=0;strokeWidth=2;strokeColor=#2F5B7C;" parent="1" source="1772" target="0h59lGTB9siEPxAaOy_X-1792" edge="1">
          <mxGeometry relative="1" as="geometry" />
        </mxCell>
        <mxCell id="0h59lGTB9siEPxAaOy_X-1808" style="edgeStyle=orthogonalEdgeStyle;rounded=0;orthogonalLoop=1;jettySize=auto;html=1;entryX=0.5;entryY=0;entryDx=0;entryDy=0;endArrow=none;endFill=0;strokeWidth=2;strokeColor=#2F5B7C;" parent="1" source="1772" target="0h59lGTB9siEPxAaOy_X-1789" edge="1">
          <mxGeometry relative="1" as="geometry" />
        </mxCell>
        <mxCell id="0h59lGTB9siEPxAaOy_X-1809" style="edgeStyle=orthogonalEdgeStyle;rounded=0;orthogonalLoop=1;jettySize=auto;html=1;endArrow=none;endFill=0;strokeWidth=2;strokeColor=#2F5B7C;" parent="1" source="1772" target="0h59lGTB9siEPxAaOy_X-1793" edge="1">
          <mxGeometry relative="1" as="geometry" />
        </mxCell>
        <mxCell id="1772" value="Physical&lt;div&gt;Guidance&lt;/div&gt;" style="rounded=1;html=1;shadow=0;labelBackgroundColor=none;strokeColor=#2F5B7C;strokeWidth=3;fillColor=#38767a;fontFamily=Helvetica;fontSize=16;fontColor=#FFFFFF;align=center;spacing=5;fontStyle=1;arcSize=7;perimeterSpacing=2;labelBorderColor=none;textShadow=0;whiteSpace=wrap;horizontal=1;" parent="1" vertex="1">
          <mxGeometry x="250" y="400" width="150" height="60" as="geometry" />
        </mxCell>
        <mxCell id="0h59lGTB9siEPxAaOy_X-1810" style="edgeStyle=orthogonalEdgeStyle;rounded=0;orthogonalLoop=1;jettySize=auto;html=1;entryX=0.5;entryY=0;entryDx=0;entryDy=0;endArrow=none;endFill=0;strokeWidth=2;strokeColor=#2F5B7C;" parent="1" source="0h59lGTB9siEPxAaOy_X-1781" target="0h59lGTB9siEPxAaOy_X-1795" edge="1">
          <mxGeometry relative="1" as="geometry" />
        </mxCell>
        <mxCell id="0h59lGTB9siEPxAaOy_X-1811" style="edgeStyle=orthogonalEdgeStyle;rounded=0;orthogonalLoop=1;jettySize=auto;html=1;endArrow=none;endFill=0;strokeWidth=2;strokeColor=#2F5B7C;" parent="1" source="0h59lGTB9siEPxAaOy_X-1781" target="0h59lGTB9siEPxAaOy_X-1794" edge="1">
          <mxGeometry relative="1" as="geometry" />
        </mxCell>
        <mxCell id="0h59lGTB9siEPxAaOy_X-1812" style="edgeStyle=orthogonalEdgeStyle;rounded=0;orthogonalLoop=1;jettySize=auto;html=1;endArrow=none;endFill=0;strokeWidth=2;strokeColor=#2F5B7C;" parent="1" source="0h59lGTB9siEPxAaOy_X-1781" target="0h59lGTB9siEPxAaOy_X-1796" edge="1">
          <mxGeometry relative="1" as="geometry" />
        </mxCell>
        <mxCell id="0h59lGTB9siEPxAaOy_X-1781" value="Observable Guidance" style="rounded=1;whiteSpace=wrap;html=1;shadow=0;labelBackgroundColor=none;strokeColor=#2f5b7c;strokeWidth=3;fillColor=#40969c;fontFamily=Helvetica;fontSize=16;fontColor=#FFFFFF;align=center;spacing=5;fontStyle=1;arcSize=7;perimeterSpacing=2;" parent="1" vertex="1">
          <mxGeometry x="639" y="400" width="150" height="60" as="geometry" />
        </mxCell>
        <mxCell id="0h59lGTB9siEPxAaOy_X-1813" style="edgeStyle=orthogonalEdgeStyle;rounded=0;orthogonalLoop=1;jettySize=auto;html=1;endArrow=none;endFill=0;strokeWidth=2;strokeColor=#2F5B7C;" parent="1" source="0h59lGTB9siEPxAaOy_X-1782" target="0h59lGTB9siEPxAaOy_X-1797" edge="1">
          <mxGeometry relative="1" as="geometry" />
        </mxCell>
        <mxCell id="0h59lGTB9siEPxAaOy_X-1814" style="edgeStyle=orthogonalEdgeStyle;rounded=0;orthogonalLoop=1;jettySize=auto;html=1;endArrow=none;endFill=0;strokeWidth=2;strokeColor=#2F5B7C;" parent="1" source="0h59lGTB9siEPxAaOy_X-1782" target="0h59lGTB9siEPxAaOy_X-1798" edge="1">
          <mxGeometry relative="1" as="geometry" />
        </mxCell>
        <mxCell id="0h59lGTB9siEPxAaOy_X-1782" value="Reactive&lt;div&gt;Guidance&lt;/div&gt;" style="rounded=1;whiteSpace=wrap;html=1;shadow=0;labelBackgroundColor=none;strokeColor=#2f5b7c;strokeWidth=3;fillColor=#02B8C5;fontFamily=Helvetica;fontSize=16;fontColor=#FFFFFF;align=center;spacing=5;fontStyle=1;arcSize=7;perimeterSpacing=2;" parent="1" vertex="1">
          <mxGeometry x="967" y="400" width="150" height="60" as="geometry" />
        </mxCell>
        <mxCell id="0h59lGTB9siEPxAaOy_X-1822" style="edgeStyle=orthogonalEdgeStyle;rounded=0;orthogonalLoop=1;jettySize=auto;html=1;entryX=0.5;entryY=0;entryDx=0;entryDy=0;endArrow=none;endFill=0;strokeWidth=2;strokeColor=#2F5B7C;" parent="1" source="0h59lGTB9siEPxAaOy_X-1789" target="0h59lGTB9siEPxAaOy_X-1802" edge="1">
          <mxGeometry relative="1" as="geometry">
            <Array as="points">
              <mxPoint x="200" y="620" />
              <mxPoint x="714" y="620" />
            </Array>
          </mxGeometry>
        </mxCell>
        <mxCell id="0h59lGTB9siEPxAaOy_X-1789" value="Kinaesthetic" style="rounded=1;whiteSpace=wrap;html=1;shadow=0;labelBackgroundColor=none;strokeColor=#2f5b7c;strokeWidth=3;fillColor=#38767a;fontFamily=Helvetica;fontSize=16;fontColor=#FFFFFF;align=center;spacing=5;fontStyle=1;arcSize=7;perimeterSpacing=2;" parent="1" vertex="1">
          <mxGeometry x="140" y="520" width="120" height="70" as="geometry" />
        </mxCell>
        <mxCell id="0h59lGTB9siEPxAaOy_X-1821" style="edgeStyle=orthogonalEdgeStyle;rounded=0;orthogonalLoop=1;jettySize=auto;html=1;entryX=0.5;entryY=0;entryDx=0;entryDy=0;endArrow=none;endFill=0;strokeWidth=2;strokeColor=#2F5B7C;" parent="1" source="0h59lGTB9siEPxAaOy_X-1792" target="0h59lGTB9siEPxAaOy_X-1802" edge="1">
          <mxGeometry relative="1" as="geometry">
            <Array as="points">
              <mxPoint x="325" y="620" />
              <mxPoint x="714" y="620" />
            </Array>
          </mxGeometry>
        </mxCell>
        <mxCell id="0h59lGTB9siEPxAaOy_X-1792" value="Teleoperation" style="rounded=1;whiteSpace=wrap;html=1;shadow=0;labelBackgroundColor=none;strokeColor=#2f5b7c;strokeWidth=3;fillColor=#38767a;fontFamily=Helvetica;fontSize=16;fontColor=#FFFFFF;align=center;spacing=5;fontStyle=1;arcSize=7;perimeterSpacing=2;" parent="1" vertex="1">
          <mxGeometry x="265" y="520" width="120" height="70" as="geometry" />
        </mxCell>
        <mxCell id="0h59lGTB9siEPxAaOy_X-1819" style="edgeStyle=orthogonalEdgeStyle;rounded=0;orthogonalLoop=1;jettySize=auto;html=1;endArrow=none;endFill=0;strokeWidth=2;strokeColor=#2F5B7C;" parent="1" source="0h59lGTB9siEPxAaOy_X-1793" target="0h59lGTB9siEPxAaOy_X-1802" edge="1">
          <mxGeometry relative="1" as="geometry">
            <Array as="points">
              <mxPoint x="450" y="620" />
              <mxPoint x="714" y="620" />
            </Array>
          </mxGeometry>
        </mxCell>
        <mxCell id="0h59lGTB9siEPxAaOy_X-1793" value="Haptics" style="rounded=1;whiteSpace=wrap;html=1;shadow=0;labelBackgroundColor=none;strokeColor=#2f5b7c;strokeWidth=3;fillColor=#38767a;fontFamily=Helvetica;fontSize=16;fontColor=#FFFFFF;align=center;spacing=5;fontStyle=1;arcSize=7;perimeterSpacing=2;" parent="1" vertex="1">
          <mxGeometry x="390" y="520" width="120" height="70" as="geometry" />
        </mxCell>
        <mxCell id="0h59lGTB9siEPxAaOy_X-1818" style="edgeStyle=orthogonalEdgeStyle;rounded=0;orthogonalLoop=1;jettySize=auto;html=1;entryX=0.5;entryY=0;entryDx=0;entryDy=0;endArrow=none;endFill=0;strokeWidth=2;strokeColor=#2F5B7C;" parent="1" source="0h59lGTB9siEPxAaOy_X-1794" target="0h59lGTB9siEPxAaOy_X-1802" edge="1">
          <mxGeometry relative="1" as="geometry">
            <Array as="points">
              <mxPoint x="589" y="620" />
              <mxPoint x="714" y="620" />
            </Array>
          </mxGeometry>
        </mxCell>
        <mxCell id="0h59lGTB9siEPxAaOy_X-1794" value="Inertial&lt;div style=&quot;font-size: 16px;&quot;&gt;Sensors&lt;span style=&quot;white-space: pre; font-size: 16px;&quot;&gt;&#x9;&lt;/span&gt;&lt;/div&gt;" style="rounded=1;whiteSpace=wrap;html=1;shadow=0;labelBackgroundColor=none;strokeColor=#2f5b7c;strokeWidth=3;fillColor=#40969c;fontFamily=Helvetica;fontSize=16;fontColor=#FFFFFF;align=center;spacing=5;fontStyle=1;arcSize=7;perimeterSpacing=2;" parent="1" vertex="1">
          <mxGeometry x="529" y="520" width="120" height="70" as="geometry" />
        </mxCell>
        <mxCell id="0h59lGTB9siEPxAaOy_X-1817" style="edgeStyle=orthogonalEdgeStyle;rounded=0;orthogonalLoop=1;jettySize=auto;html=1;entryX=0.5;entryY=0;entryDx=0;entryDy=0;endArrow=none;endFill=0;strokeWidth=2;strokeColor=#2F5B7C;" parent="1" source="0h59lGTB9siEPxAaOy_X-1795" target="0h59lGTB9siEPxAaOy_X-1802" edge="1">
          <mxGeometry relative="1" as="geometry" />
        </mxCell>
        <mxCell id="0h59lGTB9siEPxAaOy_X-1795" value="Vision&lt;div style=&quot;font-size: 16px;&quot;&gt;Sensors&lt;/div&gt;" style="rounded=1;whiteSpace=wrap;html=1;shadow=0;labelBackgroundColor=none;strokeColor=#2f5b7c;strokeWidth=3;fillColor=#40969c;fontFamily=Helvetica;fontSize=16;fontColor=#FFFFFF;align=center;spacing=5;fontStyle=1;arcSize=7;perimeterSpacing=2;" parent="1" vertex="1">
          <mxGeometry x="654" y="520" width="120" height="70" as="geometry" />
        </mxCell>
        <mxCell id="0h59lGTB9siEPxAaOy_X-1820" style="edgeStyle=orthogonalEdgeStyle;rounded=0;orthogonalLoop=1;jettySize=auto;html=1;endArrow=none;endFill=0;strokeWidth=2;strokeColor=#2F5B7C;" parent="1" source="0h59lGTB9siEPxAaOy_X-1796" target="0h59lGTB9siEPxAaOy_X-1802" edge="1">
          <mxGeometry relative="1" as="geometry">
            <Array as="points">
              <mxPoint x="839" y="620" />
              <mxPoint x="714" y="620" />
            </Array>
          </mxGeometry>
        </mxCell>
        <mxCell id="0h59lGTB9siEPxAaOy_X-1796" value="Motion Capture&lt;div style=&quot;font-size: 16px;&quot;&gt;Systems&lt;/div&gt;" style="rounded=1;whiteSpace=wrap;html=1;shadow=0;labelBackgroundColor=none;strokeColor=#2f5b7c;strokeWidth=3;fillColor=#40969c;fontFamily=Helvetica;fontSize=16;fontColor=#FFFFFF;align=center;spacing=5;fontStyle=1;arcSize=7;perimeterSpacing=2;" parent="1" vertex="1">
          <mxGeometry x="779" y="520" width="120" height="70" as="geometry" />
        </mxCell>
        <mxCell id="0h59lGTB9siEPxAaOy_X-1827" style="edgeStyle=orthogonalEdgeStyle;rounded=0;orthogonalLoop=1;jettySize=auto;html=1;strokeWidth=2;endArrow=none;endFill=0;strokeColor=#2F5B7C;" parent="1" source="0h59lGTB9siEPxAaOy_X-1797" target="0h59lGTB9siEPxAaOy_X-1802" edge="1">
          <mxGeometry relative="1" as="geometry">
            <Array as="points">
              <mxPoint x="977" y="620" />
              <mxPoint x="714" y="620" />
            </Array>
          </mxGeometry>
        </mxCell>
        <mxCell id="0h59lGTB9siEPxAaOy_X-1797" value="Reinforcement&lt;div style=&quot;font-size: 16px;&quot;&gt;Learning&lt;/div&gt;" style="rounded=1;whiteSpace=wrap;html=1;shadow=0;labelBackgroundColor=none;strokeColor=#2f5b7c;strokeWidth=3;fillColor=#02B8C5;fontFamily=Helvetica;fontSize=16;fontColor=#FFFFFF;align=center;spacing=5;fontStyle=1;arcSize=7;perimeterSpacing=2;" parent="1" vertex="1">
          <mxGeometry x="917" y="520" width="123" height="70" as="geometry" />
        </mxCell>
        <mxCell id="0h59lGTB9siEPxAaOy_X-1828" style="edgeStyle=orthogonalEdgeStyle;rounded=0;orthogonalLoop=1;jettySize=auto;html=1;strokeWidth=2;endArrow=none;endFill=0;strokeColor=#2F5B7C;" parent="1" source="0h59lGTB9siEPxAaOy_X-1798" target="0h59lGTB9siEPxAaOy_X-1802" edge="1">
          <mxGeometry relative="1" as="geometry">
            <Array as="points">
              <mxPoint x="1107" y="620" />
              <mxPoint x="714" y="620" />
            </Array>
          </mxGeometry>
        </mxCell>
        <mxCell id="0h59lGTB9siEPxAaOy_X-1798" value="Active&lt;div style=&quot;font-size: 16px;&quot;&gt;Learning&lt;/div&gt;" style="rounded=1;whiteSpace=wrap;html=1;shadow=0;labelBackgroundColor=none;strokeColor=#2f5b7c;strokeWidth=3;fillColor=#02B8C5;fontFamily=Helvetica;fontSize=16;fontColor=#FFFFFF;align=center;spacing=5;fontStyle=1;arcSize=7;perimeterSpacing=2;" parent="1" vertex="1">
          <mxGeometry x="1047" y="520" width="120" height="70" as="geometry" />
        </mxCell>
        <mxCell id="0h59lGTB9siEPxAaOy_X-1802" value="Multimodal Guidance" style="rounded=1;whiteSpace=wrap;html=1;shadow=0;labelBackgroundColor=none;strokeColor=#2f5b7c;strokeWidth=3;fillColor=#02B8C5;fontFamily=Helvetica;fontSize=16;fontColor=#FFFFFF;align=center;fontStyle=1;spacing=5;arcSize=7;perimeterSpacing=2;gradientColor=#37858B;gradientDirection=west;" parent="1" vertex="1">
          <mxGeometry x="639" y="640" width="150" height="70" as="geometry" />
        </mxCell>
      </root>
    </mxGraphModel>
  </diagram>
</mxfile>
